<svg width="35" height="35" viewBox="0 0 35 35" fill="none" xmlns="http://www.w3.org/2000/svg">
<path d="M26.2488 0.00728234L21.7101 0C16.611 0 13.3158 3.38082 13.3158 8.61355V12.585H8.75229C8.35795 12.585 8.03862 12.9047 8.03862 13.299V19.0531C8.03862 19.4475 8.35832 19.7668 8.75229 19.7668H13.3158V34.2863C13.3158 34.6807 13.6351 35 14.0294 35H19.9835C20.3778 35 20.6971 34.6803 20.6971 34.2863V19.7668H26.0329C26.4273 19.7668 26.7466 19.4475 26.7466 19.0531L26.7488 13.299C26.7488 13.1097 26.6734 12.9283 26.5398 12.7943C26.4061 12.6603 26.2241 12.585 26.0347 12.585H20.6971V9.21835C20.6971 7.60021 21.0827 6.77876 23.1906 6.77876L26.2481 6.77767C26.6421 6.77767 26.9614 6.45798 26.9614 6.064V0.720951C26.9614 0.327341 26.6424 0.00801057 26.2488 0.00728234Z" fill="white"/>
</svg>
