<svg width="35" height="35" viewBox="0 0 35 35" fill="none" xmlns="http://www.w3.org/2000/svg">
<g clip-path="url(#clip0)">
<path d="M17.5058 8.51367C12.5431 8.51367 8.52542 12.5358 8.52542 17.4941C8.52542 22.4568 12.5475 26.4745 17.5058 26.4745C22.4685 26.4745 26.4863 22.4524 26.4863 17.4941C26.4863 12.5314 22.4642 8.51367 17.5058 8.51367ZM17.5058 23.323C14.2844 23.323 11.6769 20.7141 11.6769 17.4941C11.6769 14.2741 14.2858 11.6651 17.5058 11.6651C20.7258 11.6651 23.3348 14.2741 23.3348 17.4941C23.3363 20.7141 20.7273 23.323 17.5058 23.323Z" fill="white"/>
<path d="M24.7155 0.111892C21.4955 -0.0383163 13.5198 -0.0310247 10.2969 0.111892C7.46484 0.2446 4.96671 0.928559 2.95275 2.94252C-0.413079 6.30835 0.0171295 10.8438 0.0171295 17.4952C0.0171295 24.3027 -0.362037 28.7332 2.95275 32.0479C6.33171 35.4254 10.9328 34.9836 17.5055 34.9836C24.2488 34.9836 26.5763 34.9879 28.9607 34.0648C32.2025 32.8063 34.6496 29.9086 34.8888 24.7038C35.0405 21.4823 35.0317 13.5081 34.8888 10.2852C34.6 4.14127 31.3027 0.415225 24.7155 0.111892ZM29.8123 29.8211C27.6059 32.0275 24.5448 31.8307 17.4632 31.8307C10.1715 31.8307 7.24754 31.9386 5.114 29.7992C2.65671 27.3536 3.1015 23.4263 3.1015 17.4719C3.1015 9.4146 2.27463 3.61189 10.3611 3.19773C12.219 3.1321 12.7659 3.11023 17.4428 3.11023L17.5084 3.15398C25.2798 3.15398 31.3771 2.34023 31.7432 10.4252C31.8263 12.27 31.8452 12.8242 31.8452 17.4938C31.8438 24.7009 31.9809 27.6423 29.8123 29.8211Z" fill="white"/>
<path d="M26.8421 10.2579C28.0011 10.2579 28.9406 9.31833 28.9406 8.15933C28.9406 7.00034 28.0011 6.06079 26.8421 6.06079C25.6831 6.06079 24.7435 7.00034 24.7435 8.15933C24.7435 9.31833 25.6831 10.2579 26.8421 10.2579Z" fill="white"/>
</g>
<defs>
<clipPath id="clip0">
<rect width="35" height="35" fill="white"/>
</clipPath>
</defs>
</svg>
